<svg width="266" height="279" viewBox="0 0 266 279" fill="none" xmlns="http://www.w3.org/2000/svg">
<g clip-path="url(#clip0)">
<path d="M133 255.399C193.431 255.399 242.421 206.363 242.421 145.874C242.421 85.3854 193.431 36.3496 133 36.3496C72.5683 36.3496 23.5789 85.3854 23.5789 145.874C23.5789 206.363 72.5683 255.399 133 255.399Z" stroke="#00AEFF" stroke-width="2" stroke-miterlimit="10" stroke-dasharray="12 12"/>
<path d="M133 278.631C206.25 278.631 265.632 219.194 265.632 145.874C265.632 72.5545 206.25 13.1171 133 13.1171C59.7496 13.1171 0.368408 72.5545 0.368408 145.874C0.368408 219.194 59.7496 278.631 133 278.631Z" stroke="#00AEFF" stroke-width="2" stroke-miterlimit="10" stroke-dasharray="12 12"/>
<path d="M221.767 188.168C221.769 180.71 218.99 173.519 213.975 168.003C208.959 162.487 202.068 159.043 194.649 158.345C187.23 157.647 179.818 159.744 173.863 164.228C167.908 168.711 163.839 175.257 162.452 182.585L70.4973 180.089L71.5068 195.901C71.5068 195.901 58.3947 226.185 127.308 234.254V264.861H206.975V213.971C211.474 211.334 215.206 207.566 217.801 203.04C220.396 198.513 221.763 193.387 221.767 188.168Z" fill="url(#paint0_linear)"/>
<path d="M74.6641 196.565C74.6641 196.565 62.1083 225.565 128.104 233.302V262.627H204.4V184.967L73.6841 181.42L74.6641 196.565Z" fill="#BE7C5E"/>
<path d="M112.796 75.5461C110.806 78.6884 107.656 80.9148 104.031 81.7391C100.407 82.5635 96.6045 81.9186 93.4538 79.9456L52.489 52.9258C49.3498 50.9345 47.1254 47.7806 46.3019 44.153C45.4783 40.5255 46.1225 36.7191 48.0938 33.5654C50.083 30.4272 53.2312 28.2037 56.8518 27.3795C60.4724 26.5554 64.2717 27.1975 67.4211 29.166L108.386 56.1857C111.528 58.1747 113.755 61.3275 114.581 64.9552C115.408 68.583 114.766 72.3907 112.796 75.5461Z" fill="url(#paint1_linear)"/>
<path d="M110.526 74.0711C108.677 76.9918 105.748 79.0614 102.38 79.8277C99.0109 80.5939 95.4762 79.9947 92.5475 78.1607L54.4564 53.0254C51.5384 51.1744 49.4708 48.2428 48.7053 44.8709C47.9397 41.499 48.5384 37.9609 50.3706 35.0294C52.2198 32.1087 55.1487 30.0391 58.5174 29.2728C61.8861 28.5066 65.4209 29.1058 68.3496 30.9398L106.433 56.0604C109.357 57.9103 111.429 60.8441 112.196 64.2196C112.963 67.5952 112.363 71.1375 110.526 74.0711Z" fill="#BE7C5E"/>
<path d="M189.917 217.836C205.742 217.836 218.57 204.996 218.57 189.157C218.57 173.318 205.742 160.477 189.917 160.477C174.093 160.477 161.265 173.318 161.265 189.157C161.265 204.996 174.093 217.836 189.917 217.836Z" fill="#BE7C5E"/>
<path d="M184.759 0H74.9995C72.5069 0 70.4863 2.02252 70.4863 4.51743V210.092C70.4863 212.587 72.5069 214.609 74.9995 214.609H184.759C187.252 214.609 189.273 212.587 189.273 210.092V4.51743C189.273 2.02252 187.252 0 184.759 0Z" fill="url(#paint2_linear)"/>
<path d="M182.638 2.90222H77.1144C74.339 2.90222 72.0891 5.15424 72.0891 7.93224V206.684C72.0891 209.462 74.339 211.714 77.1144 211.714H182.638C185.413 211.714 187.663 209.462 187.663 206.684V7.93224C187.663 5.15424 185.413 2.90222 182.638 2.90222Z" fill="white"/>
<path d="M158.911 8.13873C158.577 10.3532 157.462 12.3748 155.767 13.8378C154.073 15.3008 151.912 16.1087 149.675 16.1152H109.76C107.523 16.1078 105.363 15.2995 103.669 13.8366C101.976 12.3736 100.861 10.3526 100.527 8.13873H79.3799C78.8033 8.13825 78.2323 8.2515 77.6996 8.472C77.1668 8.6925 76.6826 9.01594 76.2748 9.42383C75.8669 9.83172 75.5434 10.3161 75.3226 10.8492C75.1019 11.3823 74.9883 11.9537 74.9883 12.5308V202.078C74.9878 202.655 75.1009 203.227 75.3212 203.76C75.5415 204.294 75.8647 204.778 76.2722 205.186C76.6797 205.595 77.1635 205.918 77.6961 206.139C78.2288 206.36 78.7996 206.474 79.3762 206.474H180.375C180.952 206.475 181.523 206.361 182.055 206.141C182.588 205.92 183.072 205.597 183.48 205.189C183.888 204.781 184.212 204.297 184.432 203.764C184.653 203.231 184.767 202.659 184.767 202.082V12.5345C184.767 11.9574 184.654 11.3859 184.434 10.8526C184.213 10.3193 183.89 9.83467 183.483 9.42644C183.075 9.01821 182.591 8.69436 182.059 8.47341C181.526 8.25246 180.955 8.13873 180.379 8.13873H158.911Z" fill="#00AEFF"/>
<path d="M142.181 10.6353H117.898C117.492 10.6353 117.162 10.9655 117.162 11.3729V11.5093C117.162 11.9166 117.492 12.2468 117.898 12.2468H142.181C142.588 12.2468 142.918 11.9166 142.918 11.5093V11.3729C142.918 10.9655 142.588 10.6353 142.181 10.6353Z" fill="#DBDBDB"/>
<path d="M148.389 12.2469C148.922 12.2469 149.354 11.8143 149.354 11.2807C149.354 10.7471 148.922 10.3145 148.389 10.3145C147.856 10.3145 147.424 10.7471 147.424 11.2807C147.424 11.8143 147.856 12.2469 148.389 12.2469Z" fill="#DBDBDB"/>
<path d="M208.438 194.216C200.123 196.141 194.416 190.713 192.493 182.393L173.386 111.379C172.473 107.368 173.183 103.157 175.361 99.667C177.538 96.1771 181.007 93.6915 185.01 92.7529C189.018 91.8389 193.225 92.5493 196.711 94.7292C200.198 96.9091 202.681 100.381 203.619 104.388L219.21 177.234C221.134 185.557 216.749 192.291 208.438 194.216Z" fill="url(#paint3_linear)"/>
<path d="M201.475 106.126C199.854 99.1032 192.852 94.7256 185.836 96.3482C178.82 97.9708 174.446 104.979 176.068 112.002L193.637 188.113C195.258 195.136 202.259 199.514 209.276 197.891C216.292 196.268 220.665 189.26 219.044 182.237L201.475 106.126Z" fill="#BE7C5E"/>
<path d="M218.448 253.031H109.395V278.476H218.448V253.031Z" fill="url(#paint4_linear)"/>
<path d="M215.501 255.981H112.343V275.895H215.501V255.981Z" fill="#00AEFF"/>
<path d="M96.8947 151.727C94.9295 154.831 91.8165 157.032 88.2358 157.846C84.655 158.661 80.8977 158.024 77.7847 156.074L50.3116 138.281C47.2097 136.314 45.0116 133.198 44.1978 129.614C43.3839 126.03 44.0203 122.269 45.9679 119.153C47.9331 116.048 51.0462 113.848 54.6269 113.034C58.2076 112.219 61.9649 112.856 65.0779 114.805L92.5511 132.598C95.653 134.566 97.851 137.682 98.6649 141.266C99.4788 144.85 98.8424 148.611 96.8947 151.727Z" fill="url(#paint5_linear)"/>
<path d="M89.9979 189.389C88.0152 192.522 84.874 194.743 81.2608 195.565C77.6475 196.387 73.856 195.745 70.7147 193.777L53.6974 181.357C50.567 179.373 48.3487 176.228 47.5272 172.612C46.7057 168.995 47.3478 165.2 49.3132 162.056C51.2959 158.922 54.4371 156.702 58.0503 155.88C61.6635 155.058 65.455 155.7 68.5963 157.667L85.6137 170.091C88.743 172.076 90.9606 175.219 91.7821 178.835C92.6035 182.451 91.9621 186.245 89.9979 189.389Z" fill="url(#paint6_linear)"/>
<g opacity="0.5">
<path opacity="0.5" d="M129.876 140.475C148.176 140.475 163.012 125.626 163.012 107.308C163.012 88.9906 148.176 74.1411 129.876 74.1411C111.575 74.1411 96.74 88.9906 96.74 107.308C96.74 125.626 111.575 140.475 129.876 140.475Z" fill="url(#paint7_linear)"/>
</g>
<path d="M129.876 138.525C147.1 138.525 161.063 124.549 161.063 107.308C161.063 90.0679 147.1 76.0919 129.876 76.0919C112.652 76.0919 98.689 90.0679 98.689 107.308C98.689 124.549 112.652 138.525 129.876 138.525Z" fill="#808080" fill-opacity="0.25"/>
<path d="M116.34 103.141L128.034 113.872L144.602 89.4856L150.452 94.3644L128.034 123.63L111.466 105.096L116.34 103.141Z" fill="white"/>
<path d="M88.6236 188.463C86.7744 191.384 83.8455 193.454 80.4768 194.22C77.1081 194.986 73.5733 194.387 70.6446 192.553L54.7731 180.988C51.8551 179.137 49.7875 176.206 49.0219 172.834C48.2564 169.462 48.8551 165.924 50.6873 162.992C52.5365 160.072 55.4653 158.002 58.834 157.236C62.2027 156.47 65.7375 157.069 68.6662 158.903L84.5341 170.49C87.4466 172.34 89.5107 175.267 90.2767 178.634C91.0427 182 90.4485 185.533 88.6236 188.463Z" fill="#BE7C5E"/>
<path d="M95.3841 150.749C93.5349 153.67 90.6061 155.74 87.2374 156.506C83.8687 157.272 80.3339 156.673 77.4052 154.839L51.5568 138.097C48.6388 136.246 46.5712 133.314 45.8056 129.942C45.0401 126.57 45.6388 123.032 47.471 120.101C49.3202 117.18 52.249 115.111 55.6177 114.344C58.9864 113.578 62.5212 114.177 65.4499 116.011L91.2983 132.753C94.2163 134.604 96.2839 137.536 97.0495 140.908C97.815 144.28 97.2163 147.818 95.3841 150.749Z" fill="#BE7C5E"/>
<path d="M103.998 114.241C102.023 117.36 98.8955 119.569 95.2984 120.387C91.7013 121.205 87.9269 120.565 84.7996 118.607L49.9838 95.917C46.8682 93.9402 44.6607 90.8096 43.8434 87.2091C43.0261 83.6086 43.6654 79.8307 45.6217 76.7004C47.5966 73.5819 50.7242 71.3723 54.3213 70.5542C57.9184 69.7361 61.6928 70.376 64.8201 72.3341L99.6359 95.0246C102.752 97.0014 104.959 100.132 105.776 103.732C106.594 107.333 105.954 111.111 103.998 114.241Z" fill="url(#paint8_linear)"/>
<path d="M102.148 113.061C100.299 115.982 97.3703 118.051 94.0016 118.818C90.6329 119.584 87.0981 118.985 84.1694 117.151L51.5604 95.8985C48.6424 94.0476 46.5748 91.116 45.8093 87.7441C45.0437 84.3722 45.6424 80.8341 47.4746 77.9026C49.3238 74.9818 52.2527 72.9123 55.6214 72.146C58.9901 71.3797 62.5249 71.979 65.4536 73.8129L98.0589 95.0651C100.977 96.9155 103.046 99.8468 103.812 103.219C104.578 106.591 103.98 110.129 102.148 113.061Z" fill="#BE7C5E"/>
</g>
<defs>
<linearGradient id="paint0_linear" x1="146.138" y1="264.88" x2="146.138" y2="158.217" gradientUnits="userSpaceOnUse">
<stop stop-color="#808080" stop-opacity="0.25"/>
<stop offset="0.54" stop-color="#808080" stop-opacity="0.12"/>
<stop offset="1" stop-color="#808080" stop-opacity="0.1"/>
</linearGradient>
<linearGradient id="paint1_linear" x1="31593.8" y1="16260.5" x2="31593.8" y2="8037.75" gradientUnits="userSpaceOnUse">
<stop stop-color="#808080" stop-opacity="0.25"/>
<stop offset="0.54" stop-color="#808080" stop-opacity="0.12"/>
<stop offset="1" stop-color="#808080" stop-opacity="0.1"/>
</linearGradient>
<linearGradient id="paint2_linear" x1="70246.9" y1="140366" x2="70246.9" y2="15472.4" gradientUnits="userSpaceOnUse">
<stop stop-color="#808080" stop-opacity="0.25"/>
<stop offset="0.54" stop-color="#808080" stop-opacity="0.12"/>
<stop offset="1" stop-color="#808080" stop-opacity="0.1"/>
</linearGradient>
<linearGradient id="paint3_linear" x1="36190.2" y1="61427.8" x2="36190.2" y2="33080.5" gradientUnits="userSpaceOnUse">
<stop stop-color="#808080" stop-opacity="0.25"/>
<stop offset="0.54" stop-color="#808080" stop-opacity="0.12"/>
<stop offset="1" stop-color="#808080" stop-opacity="0.1"/>
</linearGradient>
<linearGradient id="paint4_linear" x1="74606.8" y1="21278.7" x2="74606.8" y2="19522.9" gradientUnits="userSpaceOnUse">
<stop stop-color="#808080" stop-opacity="0.25"/>
<stop offset="0.54" stop-color="#808080" stop-opacity="0.12"/>
<stop offset="1" stop-color="#808080" stop-opacity="0.1"/>
</linearGradient>
<linearGradient id="paint5_linear" x1="23920.3" y1="22919.2" x2="23920.3" y2="17303.9" gradientUnits="userSpaceOnUse">
<stop stop-color="#808080" stop-opacity="0.25"/>
<stop offset="0.54" stop-color="#808080" stop-opacity="0.12"/>
<stop offset="1" stop-color="#808080" stop-opacity="0.1"/>
</linearGradient>
<linearGradient id="paint6_linear" x1="19290.2" y1="24526.3" x2="19290.2" y2="20103.1" gradientUnits="userSpaceOnUse">
<stop stop-color="#808080" stop-opacity="0.25"/>
<stop offset="0.54" stop-color="#808080" stop-opacity="0.12"/>
<stop offset="1" stop-color="#808080" stop-opacity="0.1"/>
</linearGradient>
<linearGradient id="paint7_linear" x1="23458.8" y1="25342.9" x2="23458.8" y2="13410" gradientUnits="userSpaceOnUse">
<stop stop-color="#808080" stop-opacity="0.25"/>
<stop offset="0.54" stop-color="#808080" stop-opacity="0.12"/>
<stop offset="1" stop-color="#808080" stop-opacity="0.1"/>
</linearGradient>
<linearGradient id="paint8_linear" x1="27727.8" y1="20263.7" x2="27727.8" y2="13339.9" gradientUnits="userSpaceOnUse">
<stop stop-color="#808080" stop-opacity="0.25"/>
<stop offset="0.54" stop-color="#808080" stop-opacity="0.12"/>
<stop offset="1" stop-color="#808080" stop-opacity="0.1"/>
</linearGradient>
<clipPath id="clip0">
<rect width="266" height="279" fill="white"/>
</clipPath>
</defs>
</svg>
